<svg width="113.42857" height="113.64362" xmlns="http://www.w3.org/2000/svg">

 <g>
  <title>background</title>
  <rect fill="none" id="canvas_background" height="402" width="582" y="-1" x="-1"/>
 </g>
 <g>
  <title>Layer 1</title>
  <path fill="#ffffff" id="path2320" d="m8.031216,113.318712c-1.76889,-0.38128 -3.89341,-1.47098 -5.00556,-2.56741c-1.20524,-1.18822 -1.99876,-2.59839 -2.56724,-4.56228l-0.45842,-1.58367l0,-47.49325c0,-44.39595 0.0224,-47.58035 0.34343,-48.82859c0.84989,-3.30454 2.65467,-5.66851 5.30817,-6.95283c2.93689,-1.42149 -0.60233,-1.32948 51.13603,-1.32948c51.53529,0 48.33926,-0.08005 51.10349,1.28009c2.6287,1.29347 4.40021,3.68833 5.17674,6.9983c0.34346,1.46398 0.36071,3.80518 0.36071,48.93165c0,44.34123 -0.02217,47.48033 -0.34417,48.73265c-1.03147,4.01148 -3.65323,6.54933 -7.63832,7.39383c-1.98185,0.41998 -95.46287,0.40174 -97.41486,-0.01901zm92.40859,-58.58624l0,-32.91808l-43.62637,0l-43.62637,0l0,32.91808l0,32.91809l43.62637,0l43.62637,0l0,-32.91809zm-72.22068,22.06107c2.51309,-2.59032 7.46891,-7.65445 11.01292,-11.25362l6.44367,-6.54396l2.64391,2.68019c2.78065,2.81881 3.76202,3.49125 5.94195,4.07146c1.39788,0.37206 3.95964,0.36454 5.4203,-0.01592c1.95737,-0.50983 3.04521,-1.25058 5.85683,-3.98813l2.67708,-2.60654l8.72527,8.92315c4.7989,4.90773 9.6919,9.94013 10.87332,11.18309l2.14804,2.25994l-33.15627,0l-33.15628,0l4.56926,-4.70966zm-8.8639,-22.06107l0.0008,-22.30894l10.982,11.09305l10.982,11.09305l-5.91485,6.06005c-3.25317,3.33303 -8.19543,8.38018 -10.9828,11.21589l-5.06795,5.15585l0.0008,-22.30895zm71.45761,18.78909c-1.83281,-1.88139 -6.72027,-6.88042 -10.86103,-11.10896l-7.52862,-7.68825l10.93194,-10.95211l10.93193,-10.9521l0.0027,22.06106c0.00149,12.13359 -0.03042,22.06106 -0.07091,22.06106c-0.0405,0 -1.57319,-1.53931 -3.40601,-3.4207zm-35.76012,-14.0069c-0.36853,-0.19637 -7.56413,-7.3538 -15.99021,-15.9054l-15.32015,-15.54836l16.63469,-0.05071c9.14908,-0.02788 24.13751,-0.02788 33.30764,0l16.67293,0.05071l-15.53099,15.64637c-9.46438,9.5347 -15.78091,15.7508 -16.17081,15.91371c-0.91279,0.38139 -2.79187,0.32594 -3.6031,-0.10632z"/>
 </g>
</svg>