<svg xmlns="http://www.w3.org/2000/svg" xmlns:xlink="http://www.w3.org/1999/xlink" width="435" height="435" viewBox="0 0 435 435"><defs><clipPath id="b"><rect width="435" height="435"/></clipPath></defs><g id="a" clip-path="url(#b)"><text transform="translate(135 304)" font-size="260" font-family="Formula1-Display-Bold, Formula1" font-weight="700"><tspan x="0" y="0">J</tspan></text><g fill="none" stroke="#000" stroke-width="5"><circle cx="216.5" cy="216.5" r="216.5" stroke="none"/><circle cx="216.5" cy="216.5" r="214" fill="none"/></g><line x2="44.597" transform="translate(267.365 167.78)" fill="none" stroke="#000" stroke-width="10"/><line y1="28.577" x2="28.577" transform="translate(308.932 140.502)" fill="none" stroke="#000" stroke-width="10"/><line x2="39.401" transform="translate(334.477 141.801)" fill="none" stroke="#000" stroke-width="10"/><line x2="49.793" transform="translate(268.664 189.429)" fill="none" stroke="#000" stroke-width="10"/><line y1="28.577" x2="28.577" transform="translate(315.426 162.151)" fill="none" stroke="#000" stroke-width="10"/><line x2="82.266" transform="translate(340.972 163.45)" fill="none" stroke="#000" stroke-width="10"/><line x2="54.556" transform="translate(268.231 214.109)" fill="none" stroke="#000" stroke-width="10"/><line y1="28.577" x2="28.577" transform="translate(319.756 186.831)" fill="none" stroke="#000" stroke-width="10"/><line x2="82.266" transform="translate(345.302 188.13)" fill="none" stroke="#000" stroke-width="10"/><line x2="55.854" transform="translate(268.231 240.088)" fill="none" stroke="#000" stroke-width="10"/><line y1="28.577" x2="28.577" transform="translate(321.055 212.81)" fill="none" stroke="#000" stroke-width="10"/><line x2="82.266" transform="translate(346.601 214.109)" fill="none" stroke="#000" stroke-width="10"/><g transform="translate(285 249)" fill="none" stroke="#000" stroke-width="5"><circle cx="13" cy="13" r="13" stroke="none"/><circle cx="13" cy="13" r="10.5" fill="none"/></g><line x2="35.937" transform="translate(309.365 261.737)" fill="none" stroke="#000" stroke-width="10"/><line x2="16.453" y2="16.453" transform="translate(339.24 259.572)" fill="none" stroke="#000" stroke-width="10"/><line x2="70.576" transform="translate(352.663 274.726)" fill="none" stroke="#000" stroke-width="10"/><line x2="16.453" y2="16.453" transform="translate(356.559 246.149) rotate(90)" fill="none" stroke="#000" stroke-width="10"/><line x2="40.267" transform="translate(353.529 247.448)" fill="none" stroke="#000" stroke-width="10"/><g transform="translate(391 236)" fill="none" stroke="#000" stroke-width="5"><circle cx="13" cy="13" r="13" stroke="none"/><circle cx="13" cy="13" r="10.5" fill="none"/></g><line x2="23.814" y2="23.814" transform="translate(370.848 140.502)" fill="none" stroke="#000" stroke-width="10"/><line x2="28.577" y2="28.577" transform="translate(253.51 273.86)" fill="none" stroke="#000" stroke-width="10"/><line x2="35.937" transform="translate(279.056 301.138)" fill="none" stroke="#000" stroke-width="10"/><g transform="translate(314 288)" fill="none" stroke="#000" stroke-width="5"><ellipse cx="12.5" cy="13" rx="12.5" ry="13" stroke="none"/><ellipse cx="12.5" cy="13" rx="10" ry="10.5" fill="none"/></g><g transform="translate(348 308)" fill="none" stroke="#000" stroke-width="5"><ellipse cx="12.5" cy="13" rx="12.5" ry="13" stroke="none"/><ellipse cx="12.5" cy="13" rx="10" ry="10.5" fill="none"/></g><line x2="19.051" y2="19.051" transform="translate(366.951 327.55)" fill="none" stroke="#000" stroke-width="10"/><g transform="translate(290 78)" fill="none" stroke="#000" stroke-width="5"><circle cx="12.5" cy="12.5" r="12.5" stroke="none"/><circle cx="12.5" cy="12.5" r="10" fill="none"/></g><line x2="37.236" transform="translate(312.395 90.276)" fill="none" stroke="#000" stroke-width="10"/><line x1="20.783" y1="20.783" transform="translate(346.601 88.977)" fill="none" stroke="#000" stroke-width="10"/><line x2="37.236" transform="translate(364.353 108.462)" fill="none" stroke="#000" stroke-width="10"/><line x2="66.679" transform="translate(319.756 126.647)" fill="none" stroke="#000" stroke-width="10"/><line x2="23.814" y2="23.814" transform="translate(383.404 125.348)" fill="none" stroke="#000" stroke-width="10"/><line x2="16.02" transform="translate(404.187 147.863)" fill="none" stroke="#000" stroke-width="10"/><line y1="20.35" x2="20.35" transform="translate(302.437 125.348)" fill="none" stroke="#000" stroke-width="10"/><line x2="44.597" transform="translate(260.871 144.399)" fill="none" stroke="#000" stroke-width="10"/><line x1="47.613" transform="translate(178.116 108.029)" fill="none" stroke="#000" stroke-width="10"/><line x1="30.509" y1="28.577" transform="translate(150.843 80.751)" fill="none" stroke="#000" stroke-width="10"/><line x1="42.065" transform="translate(112.013 82.05)" fill="none" stroke="#000" stroke-width="10"/><line x1="53.16" transform="translate(171.182 129.678)" fill="none" stroke="#000" stroke-width="10"/><line x1="30.509" y1="28.577" transform="translate(143.909 102.4)" fill="none" stroke="#000" stroke-width="10"/><line x1="112.723" transform="translate(34.422 103.699)" fill="none" stroke="#000" stroke-width="10"/><line x1="58.245" transform="translate(166.559 154.358)" fill="none" stroke="#000" stroke-width="10"/><line x1="30.509" y1="28.577" transform="translate(139.286 127.08)" fill="none" stroke="#000" stroke-width="10"/><line x1="120.656" transform="translate(21.866 128.379)" fill="none" stroke="#000" stroke-width="10"/><line x1="59.631" transform="translate(165.173 180.336)" fill="none" stroke="#000" stroke-width="10"/><line x1="30.509" y1="28.577" transform="translate(137.899 153.059)" fill="none" stroke="#000" stroke-width="10"/><line x1="129.228" transform="translate(11.907 154.358)" fill="none" stroke="#000" stroke-width="10"/><g transform="translate(179.271 189.212)" fill="none" stroke="#000" stroke-width="5"><ellipse cx="13.637" cy="12.773" rx="13.637" ry="12.773" stroke="none"/><ellipse cx="13.637" cy="12.773" rx="11.137" ry="10.273" fill="none"/></g><line x1="38.367" transform="translate(142.522 201.985)" fill="none" stroke="#000" stroke-width="10"/><line x1="17.566" y2="16.453" transform="translate(131.428 199.82)" fill="none" stroke="#000" stroke-width="10"/><line x1="75.348" transform="translate(59.315 214.975)" fill="none" stroke="#000" stroke-width="10"/><line y1="17.566" x2="16.453" transform="translate(148.069 186.398) rotate(90)" fill="none" stroke="#000" stroke-width="10"/><line x1="42.99" transform="translate(90.749 187.697)" fill="none" stroke="#000" stroke-width="10"/><g transform="translate(66.018 176.223)" fill="none" stroke="#000" stroke-width="5"><ellipse cx="13.637" cy="12.773" rx="13.637" ry="12.773" stroke="none"/><ellipse cx="13.637" cy="12.773" rx="11.137" ry="10.273" fill="none"/></g><line x1="25.424" y2="23.814" transform="translate(89.825 80.751)" fill="none" stroke="#000" stroke-width="10"/><line x1="30.509" y2="28.577" transform="translate(210.012 214.109)" fill="none" stroke="#000" stroke-width="10"/><line x1="38.367" transform="translate(174.88 241.387)" fill="none" stroke="#000" stroke-width="10"/><g transform="translate(148.762 228.614)" fill="none" stroke="#000" stroke-width="5"><ellipse cx="13.637" cy="12.773" rx="13.637" ry="12.773" stroke="none"/><ellipse cx="13.637" cy="12.773" rx="11.137" ry="10.273" fill="none"/></g><g transform="translate(112.706 248.531)" fill="none" stroke="#000" stroke-width="5"><ellipse cx="13.637" cy="12.773" rx="13.637" ry="12.773" stroke="none"/><ellipse cx="13.637" cy="12.773" rx="11.137" ry="10.273" fill="none"/></g><line x1="20.339" y2="19.051" transform="translate(99.07 267.798)" fill="none" stroke="#000" stroke-width="10"/><g transform="translate(175.082 19.484)" fill="none" stroke="#000" stroke-width="5"><ellipse cx="13.637" cy="12.773" rx="13.637" ry="12.773" stroke="none"/><ellipse cx="13.637" cy="12.773" rx="11.137" ry="10.273" fill="none"/></g><line x1="39.754" transform="translate(138.332 32.257)" fill="none" stroke="#000" stroke-width="10"/><line y1="20.783" x2="22.188" transform="translate(119.38 30.958)" fill="none" stroke="#000" stroke-width="10"/><path d="M45.657,0,4.4,1.592V.468" transform="translate(76.959 50.442)" fill="none" stroke="#000" stroke-width="10"/><line x1="31.891" transform="translate(7.577 267.798)" fill="none" stroke="#000" stroke-width="10"/><line x1="21.726" y1="20.35" transform="translate(36.232 266.499)" fill="none" stroke="#000" stroke-width="10"/><line x1="47.613" transform="translate(54.723 285.551)" fill="none" stroke="#000" stroke-width="10"/><line x1="25.424" y2="23.814" transform="translate(36.585 213.676)" fill="none" stroke="#000" stroke-width="10"/><line x1="36.14" transform="translate(3.68 236.191)" fill="none" stroke="#000" stroke-width="10"/><line y1="31.175" x2="31.175" transform="translate(85.081 356.559)" fill="none" stroke="#000" stroke-width="10"/><line x1="43.731" transform="translate(113.224 357.858)" fill="none" stroke="#000" stroke-width="10"/><line y1="12.556" x2="12.556" transform="translate(195.491 314.993)" fill="none" stroke="#000" stroke-width="10"/><line y2="16.886" transform="translate(206.748 301.138)" fill="none" stroke="#000" stroke-width="10"/><g transform="translate(178 320)" fill="none" stroke="#000" stroke-width="5"><ellipse cx="13" cy="12.5" rx="13" ry="12.5" stroke="none"/><ellipse cx="13" cy="12.5" rx="10.5" ry="10" fill="none"/></g><g transform="translate(151 345)" fill="none" stroke="#000" stroke-width="5"><circle cx="13" cy="13" r="13" stroke="none"/><circle cx="13" cy="13" r="10.5" fill="none"/></g></g></svg>